<?xml version="1.0" standalone="yes"?><svg xmlns="http://www.w3.org/2000/svg" version="1.1" width="225" height="225" viewBox="0 0 225 225" shape-rendering="crispEdges"><rect x="0" y="0" width="225" height="225" fill="#efe1bf"/><path fill="#2b1810" d="M20 20h5v5H20V20M25 20h5v5H25V20M30 20h5v5H30V20M35 20h5v5H35V20M40 20h5v5H40V20M45 20h5v5H45V20M50 20h5v5H50V20M60 20h5v5H60V20M75 20h5v5H75V20M85 20h5v5H85V20M90 20h5v5H90V20M100 20h5v5H100V20M115 20h5v5H115V20M125 20h5v5H125V20M130 20h5v5H130V20M145 20h5v5H145V20M160 20h5v5H160V20M170 20h5v5H170V20M175 20h5v5H175V20M180 20h5v5H180V20M185 20h5v5H185V20M190 20h5v5H190V20M195 20h5v5H195V20M200 20h5v5H200V20M20 25h5v5H20V25M50 25h5v5H50V25M60 25h5v5H60V25M65 25h5v5H65V25M80 25h5v5H80V25M85 25h5v5H85V25M105 25h5v5H105V25M110 25h5v5H110V25M115 25h5v5H115V25M120 25h5v5H120V25M125 25h5v5H125V25M135 25h5v5H135V25M140 25h5v5H140V25M150 25h5v5H150V25M155 25h5v5H155V25M170 25h5v5H170V25M200 25h5v5H200V25M20 30h5v5H20V30M30 30h5v5H30V30M35 30h5v5H35V30M40 30h5v5H40V30M50 30h5v5H50V30M60 30h5v5H60V30M65 30h5v5H65V30M75 30h5v5H75V30M80 30h5v5H80V30M105 30h5v5H105V30M110 30h5v5H110V30M130 30h5v5H130V30M140 30h5v5H140V30M160 30h5v5H160V30M170 30h5v5H170V30M180 30h5v5H180V30M185 30h5v5H185V30M190 30h5v5H190V30M200 30h5v5H200V30M20 35h5v5H20V35M30 35h5v5H30V35M35 35h5v5H35V35M40 35h5v5H40V35M50 35h5v5H50V35M65 35h5v5H65V35M70 35h5v5H70V35M85 35h5v5H85V35M100 35h5v5H100V35M105 35h5v5H105V35M110 35h5v5H110V35M115 35h5v5H115V35M120 35h5v5H120V35M140 35h5v5H140V35M145 35h5v5H145V35M150 35h5v5H150V35M170 35h5v5H170V35M180 35h5v5H180V35M185 35h5v5H185V35M190 35h5v5H190V35M200 35h5v5H200V35M20 40h5v5H20V40M30 40h5v5H30V40M35 40h5v5H35V40M40 40h5v5H40V40M50 40h5v5H50V40M70 40h5v5H70V40M85 40h5v5H85V40M90 40h5v5H90V40M100 40h5v5H100V40M105 40h5v5H105V40M110 40h5v5H110V40M120 40h5v5H120V40M135 40h5v5H135V40M140 40h5v5H140V40M170 40h5v5H170V40M180 40h5v5H180V40M185 40h5v5H185V40M190 40h5v5H190V40M200 40h5v5H200V40M20 45h5v5H20V45M50 45h5v5H50V45M60 45h5v5H60V45M70 45h5v5H70V45M80 45h5v5H80V45M95 45h5v5H95V45M100 45h5v5H100V45M110 45h5v5H110V45M130 45h5v5H130V45M135 45h5v5H135V45M155 45h5v5H155V45M160 45h5v5H160V45M170 45h5v5H170V45M200 45h5v5H200V45M20 50h5v5H20V50M25 50h5v5H25V50M30 50h5v5H30V50M35 50h5v5H35V50M40 50h5v5H40V50M45 50h5v5H45V50M50 50h5v5H50V50M60 50h5v5H60V50M70 50h5v5H70V50M80 50h5v5H80V50M90 50h5v5H90V50M100 50h5v5H100V50M110 50h5v5H110V50M120 50h5v5H120V50M130 50h5v5H130V50M140 50h5v5H140V50M150 50h5v5H150V50M160 50h5v5H160V50M170 50h5v5H170V50M175 50h5v5H175V50M180 50h5v5H180V50M185 50h5v5H185V50M190 50h5v5H190V50M195 50h5v5H195V50M200 50h5v5H200V50M60 55h5v5H60V55M65 55h5v5H65V55M80 55h5v5H80V55M85 55h5v5H85V55M95 55h5v5H95V55M100 55h5v5H100V55M105 55h5v5H105V55M115 55h5v5H115V55M125 55h5v5H125V55M140 55h5v5H140V55M160 55h5v5H160V55M30 60h5v5H30V60M35 60h5v5H35V60M40 60h5v5H40V60M50 60h5v5H50V60M60 60h5v5H60V60M75 60h5v5H75V60M90 60h5v5H90V60M100 60h5v5H100V60M110 60h5v5H110V60M115 60h5v5H115V60M130 60h5v5H130V60M140 60h5v5H140V60M145 60h5v5H145V60M160 60h5v5H160V60M165 60h5v5H165V60M170 60h5v5H170V60M175 60h5v5H175V60M190 60h5v5H190V60M195 60h5v5H195V60M200 60h5v5H200V60M35 65h5v5H35V65M40 65h5v5H40V65M55 65h5v5H55V65M95 65h5v5H95V65M110 65h5v5H110V65M115 65h5v5H115V65M120 65h5v5H120V65M130 65h5v5H130V65M145 65h5v5H145V65M150 65h5v5H150V65M175 65h5v5H175V65M195 65h5v5H195V65M20 70h5v5H20V70M35 70h5v5H35V70M40 70h5v5H40V70M50 70h5v5H50V70M65 70h5v5H65V70M70 70h5v5H70V70M85 70h5v5H85V70M90 70h5v5H90V70M95 70h5v5H95V70M115 70h5v5H115V70M120 70h5v5H120V70M125 70h5v5H125V70M130 70h5v5H130V70M140 70h5v5H140V70M145 70h5v5H145V70M150 70h5v5H150V70M155 70h5v5H155V70M160 70h5v5H160V70M170 70h5v5H170V70M175 70h5v5H175V70M185 70h5v5H185V70M195 70h5v5H195V70M200 70h5v5H200V70M20 75h5v5H20V75M25 75h5v5H25V75M30 75h5v5H30V75M40 75h5v5H40V75M45 75h5v5H45V75M55 75h5v5H55V75M75 75h5v5H75V75M80 75h5v5H80V75M85 75h5v5H85V75M105 75h5v5H105V75M115 75h5v5H115V75M120 75h5v5H120V75M150 75h5v5H150V75M160 75h5v5H160V75M170 75h5v5H170V75M180 75h5v5H180V75M200 75h5v5H200V75M25 80h5v5H25V80M30 80h5v5H30V80M40 80h5v5H40V80M45 80h5v5H45V80M50 80h5v5H50V80M60 80h5v5H60V80M80 80h5v5H80V80M90 80h5v5H90V80M100 80h5v5H100V80M105 80h5v5H105V80M110 80h5v5H110V80M115 80h5v5H115V80M120 80h5v5H120V80M130 80h5v5H130V80M140 80h5v5H140V80M145 80h5v5H145V80M150 80h5v5H150V80M165 80h5v5H165V80M170 80h5v5H170V80M180 80h5v5H180V80M185 80h5v5H185V80M190 80h5v5H190V80M20 85h5v5H20V85M55 85h5v5H55V85M60 85h5v5H60V85M80 85h5v5H80V85M90 85h5v5H90V85M95 85h5v5H95V85M100 85h5v5H100V85M105 85h5v5H105V85M115 85h5v5H115V85M135 85h5v5H135V85M140 85h5v5H140V85M160 85h5v5H160V85M165 85h5v5H165V85M175 85h5v5H175V85M185 85h5v5H185V85M190 85h5v5H190V85M195 85h5v5H195V85M20 90h5v5H20V90M25 90h5v5H25V90M30 90h5v5H30V90M40 90h5v5H40V90M45 90h5v5H45V90M50 90h5v5H50V90M65 90h5v5H65V90M70 90h5v5H70V90M75 90h5v5H75V90M80 90h5v5H80V90M95 90h5v5H95V90M100 90h5v5H100V90M105 90h5v5H105V90M110 90h5v5H110V90M130 90h5v5H130V90M145 90h5v5H145V90M150 90h5v5H150V90M155 90h5v5H155V90M160 90h5v5H160V90M165 90h5v5H165V90M170 90h5v5H170V90M180 90h5v5H180V90M185 90h5v5H185V90M195 90h5v5H195V90M200 90h5v5H200V90M20 95h5v5H20V95M30 95h5v5H30V95M40 95h5v5H40V95M45 95h5v5H45V95M70 95h5v5H70V95M85 95h5v5H85V95M115 95h5v5H115V95M130 95h5v5H130V95M150 95h5v5H150V95M160 95h5v5H160V95M165 95h5v5H165V95M170 95h5v5H170V95M175 95h5v5H175V95M180 95h5v5H180V95M200 95h5v5H200V95M20 100h5v5H20V100M40 100h5v5H40V100M50 100h5v5H50V100M65 100h5v5H65V100M75 100h5v5H75V100M80 100h5v5H80V100M85 100h5v5H85V100M95 100h5v5H95V100M115 100h5v5H115V100M130 100h5v5H130V100M135 100h5v5H135V100M140 100h5v5H140V100M145 100h5v5H145V100M150 100h5v5H150V100M165 100h5v5H165V100M170 100h5v5H170V100M175 100h5v5H175V100M180 100h5v5H180V100M190 100h5v5H190V100M195 100h5v5H195V100M200 100h5v5H200V100M20 105h5v5H20V105M35 105h5v5H35V105M45 105h5v5H45V105M55 105h5v5H55V105M60 105h5v5H60V105M70 105h5v5H70V105M80 105h5v5H80V105M90 105h5v5H90V105M115 105h5v5H115V105M125 105h5v5H125V105M130 105h5v5H130V105M135 105h5v5H135V105M140 105h5v5H140V105M145 105h5v5H145V105M175 105h5v5H175V105M185 105h5v5H185V105M190 105h5v5H190V105M25 110h5v5H25V110M30 110h5v5H30V110M40 110h5v5H40V110M50 110h5v5H50V110M55 110h5v5H55V110M75 110h5v5H75V110M90 110h5v5H90V110M110 110h5v5H110V110M120 110h5v5H120V110M125 110h5v5H125V110M130 110h5v5H130V110M140 110h5v5H140V110M155 110h5v5H155V110M160 110h5v5H160V110M175 110h5v5H175V110M195 110h5v5H195V110M200 110h5v5H200V110M20 115h5v5H20V115M35 115h5v5H35V115M45 115h5v5H45V115M60 115h5v5H60V115M75 115h5v5H75V115M80 115h5v5H80V115M85 115h5v5H85V115M95 115h5v5H95V115M120 115h5v5H120V115M135 115h5v5H135V115M140 115h5v5H140V115M150 115h5v5H150V115M155 115h5v5H155V115M160 115h5v5H160V115M165 115h5v5H165V115M170 115h5v5H170V115M25 120h5v5H25V120M45 120h5v5H45V120M50 120h5v5H50V120M55 120h5v5H55V120M65 120h5v5H65V120M70 120h5v5H70V120M85 120h5v5H85V120M90 120h5v5H90V120M95 120h5v5H95V120M100 120h5v5H100V120M105 120h5v5H105V120M115 120h5v5H115V120M125 120h5v5H125V120M130 120h5v5H130V120M145 120h5v5H145V120M150 120h5v5H150V120M155 120h5v5H155V120M165 120h5v5H165V120M170 120h5v5H170V120M175 120h5v5H175V120M180 120h5v5H180V120M185 120h5v5H185V120M190 120h5v5H190V120M30 125h5v5H30V125M55 125h5v5H55V125M70 125h5v5H70V125M75 125h5v5H75V125M90 125h5v5H90V125M110 125h5v5H110V125M115 125h5v5H115V125M120 125h5v5H120V125M140 125h5v5H140V125M175 125h5v5H175V125M195 125h5v5H195V125M30 130h5v5H30V130M40 130h5v5H40V130M50 130h5v5H50V130M65 130h5v5H65V130M75 130h5v5H75V130M85 130h5v5H85V130M95 130h5v5H95V130M100 130h5v5H100V130M115 130h5v5H115V130M120 130h5v5H120V130M130 130h5v5H130V130M135 130h5v5H135V130M140 130h5v5H140V130M145 130h5v5H145V130M150 130h5v5H150V130M155 130h5v5H155V130M170 130h5v5H170V130M195 130h5v5H195V130M200 130h5v5H200V130M25 135h5v5H25V135M40 135h5v5H40V135M55 135h5v5H55V135M85 135h5v5H85V135M90 135h5v5H90V135M100 135h5v5H100V135M105 135h5v5H105V135M125 135h5v5H125V135M130 135h5v5H130V135M135 135h5v5H135V135M140 135h5v5H140V135M165 135h5v5H165V135M170 135h5v5H170V135M175 135h5v5H175V135M20 140h5v5H20V140M45 140h5v5H45V140M50 140h5v5H50V140M60 140h5v5H60V140M65 140h5v5H65V140M70 140h5v5H70V140M75 140h5v5H75V140M80 140h5v5H80V140M85 140h5v5H85V140M90 140h5v5H90V140M95 140h5v5H95V140M105 140h5v5H105V140M130 140h5v5H130V140M165 140h5v5H165V140M170 140h5v5H170V140M180 140h5v5H180V140M185 140h5v5H185V140M190 140h5v5H190V140M200 140h5v5H200V140M20 145h5v5H20V145M25 145h5v5H25V145M30 145h5v5H30V145M45 145h5v5H45V145M60 145h5v5H60V145M65 145h5v5H65V145M70 145h5v5H70V145M75 145h5v5H75V145M95 145h5v5H95V145M105 145h5v5H105V145M110 145h5v5H110V145M125 145h5v5H125V145M140 145h5v5H140V145M175 145h5v5H175V145M185 145h5v5H185V145M20 150h5v5H20V150M30 150h5v5H30V150M35 150h5v5H35V150M45 150h5v5H45V150M50 150h5v5H50V150M60 150h5v5H60V150M80 150h5v5H80V150M85 150h5v5H85V150M90 150h5v5H90V150M95 150h5v5H95V150M100 150h5v5H100V150M105 150h5v5H105V150M110 150h5v5H110V150M115 150h5v5H115V150M125 150h5v5H125V150M130 150h5v5H130V150M155 150h5v5H155V150M170 150h5v5H170V150M180 150h5v5H180V150M195 150h5v5H195V150M200 150h5v5H200V150M20 155h5v5H20V155M30 155h5v5H30V155M35 155h5v5H35V155M45 155h5v5H45V155M70 155h5v5H70V155M80 155h5v5H80V155M85 155h5v5H85V155M100 155h5v5H100V155M105 155h5v5H105V155M110 155h5v5H110V155M115 155h5v5H115V155M140 155h5v5H140V155M150 155h5v5H150V155M160 155h5v5H160V155M165 155h5v5H165V155M200 155h5v5H200V155M20 160h5v5H20V160M40 160h5v5H40V160M50 160h5v5H50V160M65 160h5v5H65V160M70 160h5v5H70V160M80 160h5v5H80V160M105 160h5v5H105V160M110 160h5v5H110V160M115 160h5v5H115V160M125 160h5v5H125V160M130 160h5v5H130V160M145 160h5v5H145V160M150 160h5v5H150V160M160 160h5v5H160V160M165 160h5v5H165V160M170 160h5v5H170V160M175 160h5v5H175V160M180 160h5v5H180V160M190 160h5v5H190V160M195 160h5v5H195V160M200 160h5v5H200V160M60 165h5v5H60V165M65 165h5v5H65V165M70 165h5v5H70V165M75 165h5v5H75V165M80 165h5v5H80V165M100 165h5v5H100V165M105 165h5v5H105V165M110 165h5v5H110V165M130 165h5v5H130V165M135 165h5v5H135V165M145 165h5v5H145V165M155 165h5v5H155V165M160 165h5v5H160V165M180 165h5v5H180V165M20 170h5v5H20V170M25 170h5v5H25V170M30 170h5v5H30V170M35 170h5v5H35V170M40 170h5v5H40V170M45 170h5v5H45V170M50 170h5v5H50V170M65 170h5v5H65V170M70 170h5v5H70V170M80 170h5v5H80V170M100 170h5v5H100V170M105 170h5v5H105V170M110 170h5v5H110V170M125 170h5v5H125V170M160 170h5v5H160V170M170 170h5v5H170V170M180 170h5v5H180V170M185 170h5v5H185V170M195 170h5v5H195V170M200 170h5v5H200V170M20 175h5v5H20V175M50 175h5v5H50V175M70 175h5v5H70V175M100 175h5v5H100V175M105 175h5v5H105V175M120 175h5v5H120V175M130 175h5v5H130V175M150 175h5v5H150V175M155 175h5v5H155V175M160 175h5v5H160V175M180 175h5v5H180V175M20 180h5v5H20V180M30 180h5v5H30V180M35 180h5v5H35V180M40 180h5v5H40V180M50 180h5v5H50V180M60 180h5v5H60V180M80 180h5v5H80V180M105 180h5v5H105V180M115 180h5v5H115V180M140 180h5v5H140V180M145 180h5v5H145V180M150 180h5v5H150V180M155 180h5v5H155V180M160 180h5v5H160V180M165 180h5v5H165V180M170 180h5v5H170V180M175 180h5v5H175V180M180 180h5v5H180V180M190 180h5v5H190V180M195 180h5v5H195V180M20 185h5v5H20V185M30 185h5v5H30V185M35 185h5v5H35V185M40 185h5v5H40V185M50 185h5v5H50V185M60 185h5v5H60V185M75 185h5v5H75V185M80 185h5v5H80V185M85 185h5v5H85V185M95 185h5v5H95V185M115 185h5v5H115V185M120 185h5v5H120V185M150 185h5v5H150V185M160 185h5v5H160V185M170 185h5v5H170V185M180 185h5v5H180V185M20 190h5v5H20V190M30 190h5v5H30V190M35 190h5v5H35V190M40 190h5v5H40V190M50 190h5v5H50V190M60 190h5v5H60V190M75 190h5v5H75V190M115 190h5v5H115V190M130 190h5v5H130V190M135 190h5v5H135V190M140 190h5v5H140V190M145 190h5v5H145V190M160 190h5v5H160V190M165 190h5v5H165V190M190 190h5v5H190V190M200 190h5v5H200V190M20 195h5v5H20V195M50 195h5v5H50V195M65 195h5v5H65V195M70 195h5v5H70V195M80 195h5v5H80V195M85 195h5v5H85V195M90 195h5v5H90V195M95 195h5v5H95V195M100 195h5v5H100V195M110 195h5v5H110V195M115 195h5v5H115V195M120 195h5v5H120V195M135 195h5v5H135V195M155 195h5v5H155V195M160 195h5v5H160V195M165 195h5v5H165V195M170 195h5v5H170V195M180 195h5v5H180V195M200 195h5v5H200V195M20 200h5v5H20V200M25 200h5v5H25V200M30 200h5v5H30V200M35 200h5v5H35V200M40 200h5v5H40V200M45 200h5v5H45V200M50 200h5v5H50V200M65 200h5v5H65V200M70 200h5v5H70V200M75 200h5v5H75V200M85 200h5v5H85V200M95 200h5v5H95V200M100 200h5v5H100V200M120 200h5v5H120V200M135 200h5v5H135V200M140 200h5v5H140V200M145 200h5v5H145V200M150 200h5v5H150V200M165 200h5v5H165V200M185 200h5v5H185V200M190 200h5v5H190V200M195 200h5v5H195V200M200 200h5v5H200V200"/></svg>