<?xml version="1.0" standalone="yes"?><svg xmlns="http://www.w3.org/2000/svg" version="1.1" width="225" height="225" viewBox="0 0 225 225" shape-rendering="crispEdges"><rect x="0" y="0" width="225" height="225" fill="#efe1bf"/><path fill="#2b1810" d="M20 20h5v5H20V20M25 20h5v5H25V20M30 20h5v5H30V20M35 20h5v5H35V20M40 20h5v5H40V20M45 20h5v5H45V20M50 20h5v5H50V20M60 20h5v5H60V20M65 20h5v5H65V20M70 20h5v5H70V20M75 20h5v5H75V20M80 20h5v5H80V20M85 20h5v5H85V20M95 20h5v5H95V20M110 20h5v5H110V20M145 20h5v5H145V20M150 20h5v5H150V20M155 20h5v5H155V20M170 20h5v5H170V20M175 20h5v5H175V20M180 20h5v5H180V20M185 20h5v5H185V20M190 20h5v5H190V20M195 20h5v5H195V20M200 20h5v5H200V20M20 25h5v5H20V25M50 25h5v5H50V25M65 25h5v5H65V25M80 25h5v5H80V25M115 25h5v5H115V25M125 25h5v5H125V25M145 25h5v5H145V25M150 25h5v5H150V25M155 25h5v5H155V25M170 25h5v5H170V25M200 25h5v5H200V25M20 30h5v5H20V30M30 30h5v5H30V30M35 30h5v5H35V30M40 30h5v5H40V30M50 30h5v5H50V30M70 30h5v5H70V30M75 30h5v5H75V30M90 30h5v5H90V30M95 30h5v5H95V30M100 30h5v5H100V30M105 30h5v5H105V30M110 30h5v5H110V30M125 30h5v5H125V30M140 30h5v5H140V30M150 30h5v5H150V30M155 30h5v5H155V30M170 30h5v5H170V30M180 30h5v5H180V30M185 30h5v5H185V30M190 30h5v5H190V30M200 30h5v5H200V30M20 35h5v5H20V35M30 35h5v5H30V35M35 35h5v5H35V35M40 35h5v5H40V35M50 35h5v5H50V35M60 35h5v5H60V35M65 35h5v5H65V35M70 35h5v5H70V35M80 35h5v5H80V35M100 35h5v5H100V35M115 35h5v5H115V35M120 35h5v5H120V35M135 35h5v5H135V35M150 35h5v5H150V35M170 35h5v5H170V35M180 35h5v5H180V35M185 35h5v5H185V35M190 35h5v5H190V35M200 35h5v5H200V35M20 40h5v5H20V40M30 40h5v5H30V40M35 40h5v5H35V40M40 40h5v5H40V40M50 40h5v5H50V40M65 40h5v5H65V40M95 40h5v5H95V40M105 40h5v5H105V40M110 40h5v5H110V40M130 40h5v5H130V40M135 40h5v5H135V40M140 40h5v5H140V40M150 40h5v5H150V40M155 40h5v5H155V40M160 40h5v5H160V40M170 40h5v5H170V40M180 40h5v5H180V40M185 40h5v5H185V40M190 40h5v5H190V40M200 40h5v5H200V40M20 45h5v5H20V45M50 45h5v5H50V45M70 45h5v5H70V45M75 45h5v5H75V45M90 45h5v5H90V45M95 45h5v5H95V45M100 45h5v5H100V45M105 45h5v5H105V45M115 45h5v5H115V45M125 45h5v5H125V45M140 45h5v5H140V45M145 45h5v5H145V45M155 45h5v5H155V45M160 45h5v5H160V45M170 45h5v5H170V45M200 45h5v5H200V45M20 50h5v5H20V50M25 50h5v5H25V50M30 50h5v5H30V50M35 50h5v5H35V50M40 50h5v5H40V50M45 50h5v5H45V50M50 50h5v5H50V50M60 50h5v5H60V50M70 50h5v5H70V50M80 50h5v5H80V50M90 50h5v5H90V50M100 50h5v5H100V50M110 50h5v5H110V50M120 50h5v5H120V50M130 50h5v5H130V50M140 50h5v5H140V50M150 50h5v5H150V50M160 50h5v5H160V50M170 50h5v5H170V50M175 50h5v5H175V50M180 50h5v5H180V50M185 50h5v5H185V50M190 50h5v5H190V50M195 50h5v5H195V50M200 50h5v5H200V50M65 55h5v5H65V55M75 55h5v5H75V55M85 55h5v5H85V55M95 55h5v5H95V55M100 55h5v5H100V55M110 55h5v5H110V55M135 55h5v5H135V55M145 55h5v5H145V55M160 55h5v5H160V55M30 60h5v5H30V60M40 60h5v5H40V60M45 60h5v5H45V60M50 60h5v5H50V60M60 60h5v5H60V60M65 60h5v5H65V60M70 60h5v5H70V60M75 60h5v5H75V60M85 60h5v5H85V60M90 60h5v5H90V60M95 60h5v5H95V60M110 60h5v5H110V60M115 60h5v5H115V60M120 60h5v5H120V60M125 60h5v5H125V60M145 60h5v5H145V60M150 60h5v5H150V60M155 60h5v5H155V60M165 60h5v5H165V60M185 60h5v5H185V60M200 60h5v5H200V60M20 65h5v5H20V65M25 65h5v5H25V65M35 65h5v5H35V65M40 65h5v5H40V65M45 65h5v5H45V65M75 65h5v5H75V65M80 65h5v5H80V65M85 65h5v5H85V65M90 65h5v5H90V65M95 65h5v5H95V65M100 65h5v5H100V65M105 65h5v5H105V65M120 65h5v5H120V65M150 65h5v5H150V65M165 65h5v5H165V65M170 65h5v5H170V65M200 65h5v5H200V65M20 70h5v5H20V70M50 70h5v5H50V70M60 70h5v5H60V70M85 70h5v5H85V70M95 70h5v5H95V70M115 70h5v5H115V70M135 70h5v5H135V70M140 70h5v5H140V70M145 70h5v5H145V70M170 70h5v5H170V70M175 70h5v5H175V70M180 70h5v5H180V70M190 70h5v5H190V70M195 70h5v5H195V70M200 70h5v5H200V70M30 75h5v5H30V75M40 75h5v5H40V75M95 75h5v5H95V75M110 75h5v5H110V75M120 75h5v5H120V75M135 75h5v5H135V75M145 75h5v5H145V75M150 75h5v5H150V75M160 75h5v5H160V75M165 75h5v5H165V75M175 75h5v5H175V75M180 75h5v5H180V75M195 75h5v5H195V75M25 80h5v5H25V80M30 80h5v5H30V80M35 80h5v5H35V80M45 80h5v5H45V80M50 80h5v5H50V80M65 80h5v5H65V80M70 80h5v5H70V80M80 80h5v5H80V80M105 80h5v5H105V80M110 80h5v5H110V80M115 80h5v5H115V80M125 80h5v5H125V80M140 80h5v5H140V80M145 80h5v5H145V80M155 80h5v5H155V80M160 80h5v5H160V80M165 80h5v5H165V80M170 80h5v5H170V80M25 85h5v5H25V85M40 85h5v5H40V85M45 85h5v5H45V85M60 85h5v5H60V85M65 85h5v5H65V85M75 85h5v5H75V85M85 85h5v5H85V85M90 85h5v5H90V85M95 85h5v5H95V85M100 85h5v5H100V85M110 85h5v5H110V85M145 85h5v5H145V85M160 85h5v5H160V85M170 85h5v5H170V85M185 85h5v5H185V85M190 85h5v5H190V85M200 85h5v5H200V85M20 90h5v5H20V90M25 90h5v5H25V90M35 90h5v5H35V90M50 90h5v5H50V90M60 90h5v5H60V90M65 90h5v5H65V90M75 90h5v5H75V90M80 90h5v5H80V90M90 90h5v5H90V90M110 90h5v5H110V90M120 90h5v5H120V90M125 90h5v5H125V90M145 90h5v5H145V90M165 90h5v5H165V90M170 90h5v5H170V90M190 90h5v5H190V90M195 90h5v5H195V90M200 90h5v5H200V90M25 95h5v5H25V95M30 95h5v5H30V95M55 95h5v5H55V95M65 95h5v5H65V95M75 95h5v5H75V95M80 95h5v5H80V95M110 95h5v5H110V95M130 95h5v5H130V95M135 95h5v5H135V95M140 95h5v5H140V95M145 95h5v5H145V95M150 95h5v5H150V95M160 95h5v5H160V95M180 95h5v5H180V95M195 95h5v5H195V95M20 100h5v5H20V100M30 100h5v5H30V100M35 100h5v5H35V100M40 100h5v5H40V100M45 100h5v5H45V100M50 100h5v5H50V100M60 100h5v5H60V100M75 100h5v5H75V100M85 100h5v5H85V100M90 100h5v5H90V100M100 100h5v5H100V100M105 100h5v5H105V100M110 100h5v5H110V100M115 100h5v5H115V100M125 100h5v5H125V100M135 100h5v5H135V100M140 100h5v5H140V100M145 100h5v5H145V100M155 100h5v5H155V100M160 100h5v5H160V100M165 100h5v5H165V100M170 100h5v5H170V100M175 100h5v5H175V100M185 100h5v5H185V100M195 100h5v5H195V100M200 100h5v5H200V100M25 105h5v5H25V105M35 105h5v5H35V105M60 105h5v5H60V105M85 105h5v5H85V105M90 105h5v5H90V105M105 105h5v5H105V105M110 105h5v5H110V105M120 105h5v5H120V105M125 105h5v5H125V105M130 105h5v5H130V105M165 105h5v5H165V105M170 105h5v5H170V105M185 105h5v5H185V105M190 105h5v5H190V105M195 105h5v5H195V105M200 105h5v5H200V105M25 110h5v5H25V110M35 110h5v5H35V110M50 110h5v5H50V110M65 110h5v5H65V110M70 110h5v5H70V110M80 110h5v5H80V110M95 110h5v5H95V110M100 110h5v5H100V110M110 110h5v5H110V110M115 110h5v5H115V110M120 110h5v5H120V110M140 110h5v5H140V110M150 110h5v5H150V110M175 110h5v5H175V110M180 110h5v5H180V110M185 110h5v5H185V110M190 110h5v5H190V110M195 110h5v5H195V110M200 110h5v5H200V110M25 115h5v5H25V115M35 115h5v5H35V115M60 115h5v5H60V115M75 115h5v5H75V115M95 115h5v5H95V115M105 115h5v5H105V115M110 115h5v5H110V115M145 115h5v5H145V115M150 115h5v5H150V115M155 115h5v5H155V115M160 115h5v5H160V115M175 115h5v5H175V115M195 115h5v5H195V115M200 115h5v5H200V115M25 120h5v5H25V120M30 120h5v5H30V120M35 120h5v5H35V120M40 120h5v5H40V120M45 120h5v5H45V120M50 120h5v5H50V120M55 120h5v5H55V120M60 120h5v5H60V120M85 120h5v5H85V120M105 120h5v5H105V120M115 120h5v5H115V120M120 120h5v5H120V120M145 120h5v5H145V120M160 120h5v5H160V120M165 120h5v5H165V120M170 120h5v5H170V120M175 120h5v5H175V120M25 125h5v5H25V125M30 125h5v5H30V125M45 125h5v5H45V125M70 125h5v5H70V125M80 125h5v5H80V125M85 125h5v5H85V125M90 125h5v5H90V125M105 125h5v5H105V125M120 125h5v5H120V125M135 125h5v5H135V125M145 125h5v5H145V125M165 125h5v5H165V125M170 125h5v5H170V125M200 125h5v5H200V125M20 130h5v5H20V130M25 130h5v5H25V130M35 130h5v5H35V130M50 130h5v5H50V130M60 130h5v5H60V130M70 130h5v5H70V130M75 130h5v5H75V130M90 130h5v5H90V130M115 130h5v5H115V130M135 130h5v5H135V130M140 130h5v5H140V130M145 130h5v5H145V130M160 130h5v5H160V130M170 130h5v5H170V130M180 130h5v5H180V130M185 130h5v5H185V130M190 130h5v5H190V130M195 130h5v5H195V130M200 130h5v5H200V130M20 135h5v5H20V135M40 135h5v5H40V135M45 135h5v5H45V135M75 135h5v5H75V135M80 135h5v5H80V135M90 135h5v5H90V135M100 135h5v5H100V135M110 135h5v5H110V135M115 135h5v5H115V135M145 135h5v5H145V135M150 135h5v5H150V135M195 135h5v5H195V135M200 135h5v5H200V135M25 140h5v5H25V140M30 140h5v5H30V140M40 140h5v5H40V140M45 140h5v5H45V140M50 140h5v5H50V140M75 140h5v5H75V140M80 140h5v5H80V140M100 140h5v5H100V140M105 140h5v5H105V140M120 140h5v5H120V140M125 140h5v5H125V140M150 140h5v5H150V140M155 140h5v5H155V140M160 140h5v5H160V140M165 140h5v5H165V140M170 140h5v5H170V140M200 140h5v5H200V140M25 145h5v5H25V145M30 145h5v5H30V145M35 145h5v5H35V145M55 145h5v5H55V145M60 145h5v5H60V145M65 145h5v5H65V145M70 145h5v5H70V145M80 145h5v5H80V145M85 145h5v5H85V145M95 145h5v5H95V145M100 145h5v5H100V145M115 145h5v5H115V145M125 145h5v5H125V145M135 145h5v5H135V145M145 145h5v5H145V145M165 145h5v5H165V145M170 145h5v5H170V145M185 145h5v5H185V145M195 145h5v5H195V145M200 145h5v5H200V145M20 150h5v5H20V150M40 150h5v5H40V150M45 150h5v5H45V150M50 150h5v5H50V150M65 150h5v5H65V150M70 150h5v5H70V150M80 150h5v5H80V150M85 150h5v5H85V150M95 150h5v5H95V150M105 150h5v5H105V150M110 150h5v5H110V150M115 150h5v5H115V150M120 150h5v5H120V150M150 150h5v5H150V150M160 150h5v5H160V150M170 150h5v5H170V150M185 150h5v5H185V150M190 150h5v5H190V150M195 150h5v5H195V150M200 150h5v5H200V150M25 155h5v5H25V155M35 155h5v5H35V155M55 155h5v5H55V155M70 155h5v5H70V155M75 155h5v5H75V155M95 155h5v5H95V155M100 155h5v5H100V155M135 155h5v5H135V155M145 155h5v5H145V155M150 155h5v5H150V155M160 155h5v5H160V155M170 155h5v5H170V155M175 155h5v5H175V155M195 155h5v5H195V155M20 160h5v5H20V160M30 160h5v5H30V160M35 160h5v5H35V160M50 160h5v5H50V160M60 160h5v5H60V160M80 160h5v5H80V160M90 160h5v5H90V160M100 160h5v5H100V160M105 160h5v5H105V160M110 160h5v5H110V160M115 160h5v5H115V160M120 160h5v5H120V160M145 160h5v5H145V160M155 160h5v5H155V160M160 160h5v5H160V160M165 160h5v5H165V160M170 160h5v5H170V160M175 160h5v5H175V160M180 160h5v5H180V160M185 160h5v5H185V160M195 160h5v5H195V160M200 160h5v5H200V160M60 165h5v5H60V165M65 165h5v5H65V165M70 165h5v5H70V165M85 165h5v5H85V165M100 165h5v5H100V165M105 165h5v5H105V165M115 165h5v5H115V165M130 165h5v5H130V165M140 165h5v5H140V165M155 165h5v5H155V165M160 165h5v5H160V165M180 165h5v5H180V165M195 165h5v5H195V165M200 165h5v5H200V165M20 170h5v5H20V170M25 170h5v5H25V170M30 170h5v5H30V170M35 170h5v5H35V170M40 170h5v5H40V170M45 170h5v5H45V170M50 170h5v5H50V170M70 170h5v5H70V170M80 170h5v5H80V170M90 170h5v5H90V170M95 170h5v5H95V170M105 170h5v5H105V170M120 170h5v5H120V170M130 170h5v5H130V170M150 170h5v5H150V170M155 170h5v5H155V170M160 170h5v5H160V170M170 170h5v5H170V170M180 170h5v5H180V170M190 170h5v5H190V170M195 170h5v5H195V170M200 170h5v5H200V170M20 175h5v5H20V175M50 175h5v5H50V175M60 175h5v5H60V175M65 175h5v5H65V175M75 175h5v5H75V175M80 175h5v5H80V175M85 175h5v5H85V175M100 175h5v5H100V175M115 175h5v5H115V175M120 175h5v5H120V175M130 175h5v5H130V175M135 175h5v5H135V175M140 175h5v5H140V175M145 175h5v5H145V175M150 175h5v5H150V175M155 175h5v5H155V175M160 175h5v5H160V175M180 175h5v5H180V175M195 175h5v5H195V175M200 175h5v5H200V175M20 180h5v5H20V180M30 180h5v5H30V180M35 180h5v5H35V180M40 180h5v5H40V180M50 180h5v5H50V180M60 180h5v5H60V180M90 180h5v5H90V180M95 180h5v5H95V180M100 180h5v5H100V180M105 180h5v5H105V180M110 180h5v5H110V180M115 180h5v5H115V180M120 180h5v5H120V180M125 180h5v5H125V180M130 180h5v5H130V180M140 180h5v5H140V180M145 180h5v5H145V180M160 180h5v5H160V180M165 180h5v5H165V180M170 180h5v5H170V180M175 180h5v5H175V180M180 180h5v5H180V180M185 180h5v5H185V180M195 180h5v5H195V180M20 185h5v5H20V185M30 185h5v5H30V185M35 185h5v5H35V185M40 185h5v5H40V185M50 185h5v5H50V185M70 185h5v5H70V185M75 185h5v5H75V185M80 185h5v5H80V185M95 185h5v5H95V185M105 185h5v5H105V185M135 185h5v5H135V185M140 185h5v5H140V185M145 185h5v5H145V185M150 185h5v5H150V185M160 185h5v5H160V185M165 185h5v5H165V185M175 185h5v5H175V185M180 185h5v5H180V185M195 185h5v5H195V185M200 185h5v5H200V185M20 190h5v5H20V190M30 190h5v5H30V190M35 190h5v5H35V190M40 190h5v5H40V190M50 190h5v5H50V190M60 190h5v5H60V190M65 190h5v5H65V190M70 190h5v5H70V190M75 190h5v5H75V190M90 190h5v5H90V190M95 190h5v5H95V190M100 190h5v5H100V190M115 190h5v5H115V190M125 190h5v5H125V190M135 190h5v5H135V190M140 190h5v5H140V190M145 190h5v5H145V190M150 190h5v5H150V190M155 190h5v5H155V190M165 190h5v5H165V190M180 190h5v5H180V190M185 190h5v5H185V190M200 190h5v5H200V190M20 195h5v5H20V195M50 195h5v5H50V195M65 195h5v5H65V195M70 195h5v5H70V195M75 195h5v5H75V195M90 195h5v5H90V195M95 195h5v5H95V195M100 195h5v5H100V195M105 195h5v5H105V195M115 195h5v5H115V195M120 195h5v5H120V195M140 195h5v5H140V195M145 195h5v5H145V195M155 195h5v5H155V195M160 195h5v5H160V195M175 195h5v5H175V195M180 195h5v5H180V195M195 195h5v5H195V195M20 200h5v5H20V200M25 200h5v5H25V200M30 200h5v5H30V200M35 200h5v5H35V200M40 200h5v5H40V200M45 200h5v5H45V200M50 200h5v5H50V200M75 200h5v5H75V200M85 200h5v5H85V200M90 200h5v5H90V200M115 200h5v5H115V200M125 200h5v5H125V200M130 200h5v5H130V200M135 200h5v5H135V200M140 200h5v5H140V200M145 200h5v5H145V200M155 200h5v5H155V200M160 200h5v5H160V200M165 200h5v5H165V200M180 200h5v5H180V200M195 200h5v5H195V200M200 200h5v5H200V200"/></svg>