<?xml version="1.0" standalone="yes"?><svg xmlns="http://www.w3.org/2000/svg" version="1.1" width="225" height="225" viewBox="0 0 225 225" shape-rendering="crispEdges"><rect x="0" y="0" width="225" height="225" fill="#efe1bf"/><path fill="#2b1810" d="M20 20h5v5H20V20M25 20h5v5H25V20M30 20h5v5H30V20M35 20h5v5H35V20M40 20h5v5H40V20M45 20h5v5H45V20M50 20h5v5H50V20M70 20h5v5H70V20M80 20h5v5H80V20M105 20h5v5H105V20M120 20h5v5H120V20M125 20h5v5H125V20M135 20h5v5H135V20M150 20h5v5H150V20M170 20h5v5H170V20M175 20h5v5H175V20M180 20h5v5H180V20M185 20h5v5H185V20M190 20h5v5H190V20M195 20h5v5H195V20M200 20h5v5H200V20M20 25h5v5H20V25M50 25h5v5H50V25M60 25h5v5H60V25M80 25h5v5H80V25M85 25h5v5H85V25M95 25h5v5H95V25M105 25h5v5H105V25M135 25h5v5H135V25M150 25h5v5H150V25M170 25h5v5H170V25M200 25h5v5H200V25M20 30h5v5H20V30M30 30h5v5H30V30M35 30h5v5H35V30M40 30h5v5H40V30M50 30h5v5H50V30M60 30h5v5H60V30M65 30h5v5H65V30M70 30h5v5H70V30M75 30h5v5H75V30M80 30h5v5H80V30M85 30h5v5H85V30M90 30h5v5H90V30M100 30h5v5H100V30M110 30h5v5H110V30M115 30h5v5H115V30M120 30h5v5H120V30M135 30h5v5H135V30M140 30h5v5H140V30M145 30h5v5H145V30M150 30h5v5H150V30M170 30h5v5H170V30M180 30h5v5H180V30M185 30h5v5H185V30M190 30h5v5H190V30M200 30h5v5H200V30M20 35h5v5H20V35M30 35h5v5H30V35M35 35h5v5H35V35M40 35h5v5H40V35M50 35h5v5H50V35M60 35h5v5H60V35M70 35h5v5H70V35M75 35h5v5H75V35M80 35h5v5H80V35M85 35h5v5H85V35M95 35h5v5H95V35M100 35h5v5H100V35M105 35h5v5H105V35M115 35h5v5H115V35M120 35h5v5H120V35M125 35h5v5H125V35M145 35h5v5H145V35M150 35h5v5H150V35M155 35h5v5H155V35M170 35h5v5H170V35M180 35h5v5H180V35M185 35h5v5H185V35M190 35h5v5H190V35M200 35h5v5H200V35M20 40h5v5H20V40M30 40h5v5H30V40M35 40h5v5H35V40M40 40h5v5H40V40M50 40h5v5H50V40M60 40h5v5H60V40M75 40h5v5H75V40M85 40h5v5H85V40M110 40h5v5H110V40M115 40h5v5H115V40M130 40h5v5H130V40M140 40h5v5H140V40M145 40h5v5H145V40M150 40h5v5H150V40M160 40h5v5H160V40M170 40h5v5H170V40M180 40h5v5H180V40M185 40h5v5H185V40M190 40h5v5H190V40M200 40h5v5H200V40M20 45h5v5H20V45M50 45h5v5H50V45M60 45h5v5H60V45M65 45h5v5H65V45M70 45h5v5H70V45M100 45h5v5H100V45M135 45h5v5H135V45M140 45h5v5H140V45M160 45h5v5H160V45M170 45h5v5H170V45M200 45h5v5H200V45M20 50h5v5H20V50M25 50h5v5H25V50M30 50h5v5H30V50M35 50h5v5H35V50M40 50h5v5H40V50M45 50h5v5H45V50M50 50h5v5H50V50M60 50h5v5H60V50M70 50h5v5H70V50M80 50h5v5H80V50M90 50h5v5H90V50M100 50h5v5H100V50M110 50h5v5H110V50M120 50h5v5H120V50M130 50h5v5H130V50M140 50h5v5H140V50M150 50h5v5H150V50M160 50h5v5H160V50M170 50h5v5H170V50M175 50h5v5H175V50M180 50h5v5H180V50M185 50h5v5H185V50M190 50h5v5H190V50M195 50h5v5H195V50M200 50h5v5H200V50M90 55h5v5H90V55M100 55h5v5H100V55M105 55h5v5H105V55M110 55h5v5H110V55M115 55h5v5H115V55M150 55h5v5H150V55M155 55h5v5H155V55M160 55h5v5H160V55M30 60h5v5H30V60M45 60h5v5H45V60M50 60h5v5H50V60M55 60h5v5H55V60M60 60h5v5H60V60M70 60h5v5H70V60M85 60h5v5H85V60M90 60h5v5H90V60M100 60h5v5H100V60M105 60h5v5H105V60M110 60h5v5H110V60M120 60h5v5H120V60M135 60h5v5H135V60M150 60h5v5H150V60M165 60h5v5H165V60M175 60h5v5H175V60M180 60h5v5H180V60M185 60h5v5H185V60M190 60h5v5H190V60M195 60h5v5H195V60M20 65h5v5H20V65M25 65h5v5H25V65M30 65h5v5H30V65M35 65h5v5H35V65M40 65h5v5H40V65M55 65h5v5H55V65M65 65h5v5H65V65M80 65h5v5H80V65M90 65h5v5H90V65M95 65h5v5H95V65M100 65h5v5H100V65M115 65h5v5H115V65M120 65h5v5H120V65M125 65h5v5H125V65M130 65h5v5H130V65M145 65h5v5H145V65M150 65h5v5H150V65M155 65h5v5H155V65M170 65h5v5H170V65M175 65h5v5H175V65M185 65h5v5H185V65M195 65h5v5H195V65M200 65h5v5H200V65M20 70h5v5H20V70M25 70h5v5H25V70M35 70h5v5H35V70M45 70h5v5H45V70M50 70h5v5H50V70M55 70h5v5H55V70M60 70h5v5H60V70M65 70h5v5H65V70M75 70h5v5H75V70M95 70h5v5H95V70M105 70h5v5H105V70M125 70h5v5H125V70M135 70h5v5H135V70M155 70h5v5H155V70M165 70h5v5H165V70M170 70h5v5H170V70M180 70h5v5H180V70M185 70h5v5H185V70M190 70h5v5H190V70M200 70h5v5H200V70M25 75h5v5H25V75M40 75h5v5H40V75M45 75h5v5H45V75M55 75h5v5H55V75M65 75h5v5H65V75M75 75h5v5H75V75M85 75h5v5H85V75M95 75h5v5H95V75M105 75h5v5H105V75M110 75h5v5H110V75M115 75h5v5H115V75M120 75h5v5H120V75M125 75h5v5H125V75M135 75h5v5H135V75M150 75h5v5H150V75M155 75h5v5H155V75M160 75h5v5H160V75M180 75h5v5H180V75M185 75h5v5H185V75M50 80h5v5H50V80M55 80h5v5H55V80M70 80h5v5H70V80M75 80h5v5H75V80M80 80h5v5H80V80M85 80h5v5H85V80M110 80h5v5H110V80M140 80h5v5H140V80M160 80h5v5H160V80M170 80h5v5H170V80M175 80h5v5H175V80M185 80h5v5H185V80M195 80h5v5H195V80M35 85h5v5H35V85M55 85h5v5H55V85M60 85h5v5H60V85M65 85h5v5H65V85M90 85h5v5H90V85M100 85h5v5H100V85M105 85h5v5H105V85M110 85h5v5H110V85M115 85h5v5H115V85M125 85h5v5H125V85M135 85h5v5H135V85M155 85h5v5H155V85M160 85h5v5H160V85M165 85h5v5H165V85M170 85h5v5H170V85M175 85h5v5H175V85M190 85h5v5H190V85M195 85h5v5H195V85M200 85h5v5H200V85M20 90h5v5H20V90M40 90h5v5H40V90M45 90h5v5H45V90M50 90h5v5H50V90M55 90h5v5H55V90M60 90h5v5H60V90M80 90h5v5H80V90M85 90h5v5H85V90M90 90h5v5H90V90M95 90h5v5H95V90M105 90h5v5H105V90M115 90h5v5H115V90M120 90h5v5H120V90M135 90h5v5H135V90M155 90h5v5H155V90M170 90h5v5H170V90M175 90h5v5H175V90M185 90h5v5H185V90M190 90h5v5H190V90M200 90h5v5H200V90M30 95h5v5H30V95M35 95h5v5H35V95M45 95h5v5H45V95M65 95h5v5H65V95M80 95h5v5H80V95M85 95h5v5H85V95M95 95h5v5H95V95M110 95h5v5H110V95M115 95h5v5H115V95M125 95h5v5H125V95M130 95h5v5H130V95M140 95h5v5H140V95M150 95h5v5H150V95M155 95h5v5H155V95M160 95h5v5H160V95M165 95h5v5H165V95M175 95h5v5H175V95M180 95h5v5H180V95M185 95h5v5H185V95M20 100h5v5H20V100M25 100h5v5H25V100M30 100h5v5H30V100M40 100h5v5H40V100M50 100h5v5H50V100M55 100h5v5H55V100M60 100h5v5H60V100M65 100h5v5H65V100M80 100h5v5H80V100M90 100h5v5H90V100M95 100h5v5H95V100M100 100h5v5H100V100M105 100h5v5H105V100M110 100h5v5H110V100M120 100h5v5H120V100M140 100h5v5H140V100M160 100h5v5H160V100M170 100h5v5H170V100M200 100h5v5H200V100M55 105h5v5H55V105M60 105h5v5H60V105M65 105h5v5H65V105M75 105h5v5H75V105M80 105h5v5H80V105M90 105h5v5H90V105M95 105h5v5H95V105M110 105h5v5H110V105M120 105h5v5H120V105M130 105h5v5H130V105M135 105h5v5H135V105M145 105h5v5H145V105M155 105h5v5H155V105M170 105h5v5H170V105M175 105h5v5H175V105M190 105h5v5H190V105M200 105h5v5H200V105M45 110h5v5H45V110M50 110h5v5H50V110M55 110h5v5H55V110M70 110h5v5H70V110M75 110h5v5H75V110M85 110h5v5H85V110M100 110h5v5H100V110M105 110h5v5H105V110M110 110h5v5H110V110M115 110h5v5H115V110M120 110h5v5H120V110M125 110h5v5H125V110M135 110h5v5H135V110M140 110h5v5H140V110M145 110h5v5H145V110M150 110h5v5H150V110M155 110h5v5H155V110M165 110h5v5H165V110M180 110h5v5H180V110M190 110h5v5H190V110M200 110h5v5H200V110M45 115h5v5H45V115M55 115h5v5H55V115M65 115h5v5H65V115M80 115h5v5H80V115M85 115h5v5H85V115M110 115h5v5H110V115M115 115h5v5H115V115M120 115h5v5H120V115M125 115h5v5H125V115M135 115h5v5H135V115M150 115h5v5H150V115M160 115h5v5H160V115M165 115h5v5H165V115M185 115h5v5H185V115M200 115h5v5H200V115M30 120h5v5H30V120M40 120h5v5H40V120M50 120h5v5H50V120M60 120h5v5H60V120M65 120h5v5H65V120M75 120h5v5H75V120M95 120h5v5H95V120M115 120h5v5H115V120M120 120h5v5H120V120M125 120h5v5H125V120M135 120h5v5H135V120M155 120h5v5H155V120M160 120h5v5H160V120M170 120h5v5H170V120M185 120h5v5H185V120M195 120h5v5H195V120M30 125h5v5H30V125M35 125h5v5H35V125M55 125h5v5H55V125M65 125h5v5H65V125M70 125h5v5H70V125M75 125h5v5H75V125M80 125h5v5H80V125M85 125h5v5H85V125M90 125h5v5H90V125M95 125h5v5H95V125M115 125h5v5H115V125M120 125h5v5H120V125M155 125h5v5H155V125M170 125h5v5H170V125M175 125h5v5H175V125M185 125h5v5H185V125M195 125h5v5H195V125M200 125h5v5H200V125M20 130h5v5H20V130M45 130h5v5H45V130M50 130h5v5H50V130M55 130h5v5H55V130M60 130h5v5H60V130M65 130h5v5H65V130M70 130h5v5H70V130M90 130h5v5H90V130M95 130h5v5H95V130M105 130h5v5H105V130M125 130h5v5H125V130M140 130h5v5H140V130M145 130h5v5H145V130M150 130h5v5H150V130M155 130h5v5H155V130M160 130h5v5H160V130M165 130h5v5H165V130M170 130h5v5H170V130M175 130h5v5H175V130M180 130h5v5H180V130M190 130h5v5H190V130M200 130h5v5H200V130M25 135h5v5H25V135M35 135h5v5H35V135M40 135h5v5H40V135M55 135h5v5H55V135M65 135h5v5H65V135M80 135h5v5H80V135M85 135h5v5H85V135M95 135h5v5H95V135M100 135h5v5H100V135M105 135h5v5H105V135M110 135h5v5H110V135M130 135h5v5H130V135M135 135h5v5H135V135M155 135h5v5H155V135M165 135h5v5H165V135M175 135h5v5H175V135M185 135h5v5H185V135M200 135h5v5H200V135M20 140h5v5H20V140M25 140h5v5H25V140M30 140h5v5H30V140M40 140h5v5H40V140M50 140h5v5H50V140M55 140h5v5H55V140M65 140h5v5H65V140M80 140h5v5H80V140M85 140h5v5H85V140M95 140h5v5H95V140M115 140h5v5H115V140M120 140h5v5H120V140M135 140h5v5H135V140M145 140h5v5H145V140M150 140h5v5H150V140M160 140h5v5H160V140M170 140h5v5H170V140M175 140h5v5H175V140M185 140h5v5H185V140M195 140h5v5H195V140M200 140h5v5H200V140M45 145h5v5H45V145M60 145h5v5H60V145M70 145h5v5H70V145M75 145h5v5H75V145M80 145h5v5H80V145M95 145h5v5H95V145M100 145h5v5H100V145M105 145h5v5H105V145M130 145h5v5H130V145M155 145h5v5H155V145M170 145h5v5H170V145M175 145h5v5H175V145M200 145h5v5H200V145M20 150h5v5H20V150M25 150h5v5H25V150M30 150h5v5H30V150M35 150h5v5H35V150M40 150h5v5H40V150M50 150h5v5H50V150M55 150h5v5H55V150M70 150h5v5H70V150M75 150h5v5H75V150M80 150h5v5H80V150M95 150h5v5H95V150M100 150h5v5H100V150M110 150h5v5H110V150M120 150h5v5H120V150M125 150h5v5H125V150M135 150h5v5H135V150M145 150h5v5H145V150M150 150h5v5H150V150M155 150h5v5H155V150M160 150h5v5H160V150M165 150h5v5H165V150M170 150h5v5H170V150M175 150h5v5H175V150M190 150h5v5H190V150M200 150h5v5H200V150M30 155h5v5H30V155M45 155h5v5H45V155M65 155h5v5H65V155M70 155h5v5H70V155M85 155h5v5H85V155M100 155h5v5H100V155M105 155h5v5H105V155M115 155h5v5H115V155M125 155h5v5H125V155M150 155h5v5H150V155M155 155h5v5H155V155M160 155h5v5H160V155M165 155h5v5H165V155M170 155h5v5H170V155M185 155h5v5H185V155M20 160h5v5H20V160M25 160h5v5H25V160M30 160h5v5H30V160M45 160h5v5H45V160M50 160h5v5H50V160M55 160h5v5H55V160M60 160h5v5H60V160M65 160h5v5H65V160M75 160h5v5H75V160M80 160h5v5H80V160M85 160h5v5H85V160M90 160h5v5H90V160M100 160h5v5H100V160M110 160h5v5H110V160M120 160h5v5H120V160M125 160h5v5H125V160M135 160h5v5H135V160M160 160h5v5H160V160M165 160h5v5H165V160M170 160h5v5H170V160M175 160h5v5H175V160M180 160h5v5H180V160M200 160h5v5H200V160M60 165h5v5H60V165M65 165h5v5H65V165M70 165h5v5H70V165M75 165h5v5H75V165M95 165h5v5H95V165M100 165h5v5H100V165M125 165h5v5H125V165M130 165h5v5H130V165M135 165h5v5H135V165M140 165h5v5H140V165M145 165h5v5H145V165M160 165h5v5H160V165M180 165h5v5H180V165M185 165h5v5H185V165M200 165h5v5H200V165M20 170h5v5H20V170M25 170h5v5H25V170M30 170h5v5H30V170M35 170h5v5H35V170M40 170h5v5H40V170M45 170h5v5H45V170M50 170h5v5H50V170M60 170h5v5H60V170M70 170h5v5H70V170M75 170h5v5H75V170M80 170h5v5H80V170M85 170h5v5H85V170M90 170h5v5H90V170M110 170h5v5H110V170M115 170h5v5H115V170M120 170h5v5H120V170M125 170h5v5H125V170M130 170h5v5H130V170M135 170h5v5H135V170M145 170h5v5H145V170M150 170h5v5H150V170M160 170h5v5H160V170M170 170h5v5H170V170M180 170h5v5H180V170M185 170h5v5H185V170M190 170h5v5H190V170M200 170h5v5H200V170M20 175h5v5H20V175M50 175h5v5H50V175M60 175h5v5H60V175M65 175h5v5H65V175M80 175h5v5H80V175M95 175h5v5H95V175M100 175h5v5H100V175M105 175h5v5H105V175M110 175h5v5H110V175M120 175h5v5H120V175M125 175h5v5H125V175M130 175h5v5H130V175M140 175h5v5H140V175M150 175h5v5H150V175M160 175h5v5H160V175M180 175h5v5H180V175M185 175h5v5H185V175M200 175h5v5H200V175M20 180h5v5H20V180M30 180h5v5H30V180M35 180h5v5H35V180M40 180h5v5H40V180M50 180h5v5H50V180M65 180h5v5H65V180M75 180h5v5H75V180M85 180h5v5H85V180M90 180h5v5H90V180M100 180h5v5H100V180M130 180h5v5H130V180M135 180h5v5H135V180M140 180h5v5H140V180M155 180h5v5H155V180M160 180h5v5H160V180M165 180h5v5H165V180M170 180h5v5H170V180M175 180h5v5H175V180M180 180h5v5H180V180M20 185h5v5H20V185M30 185h5v5H30V185M35 185h5v5H35V185M40 185h5v5H40V185M50 185h5v5H50V185M65 185h5v5H65V185M75 185h5v5H75V185M85 185h5v5H85V185M125 185h5v5H125V185M140 185h5v5H140V185M150 185h5v5H150V185M155 185h5v5H155V185M160 185h5v5H160V185M180 185h5v5H180V185M185 185h5v5H185V185M200 185h5v5H200V185M20 190h5v5H20V190M30 190h5v5H30V190M35 190h5v5H35V190M40 190h5v5H40V190M50 190h5v5H50V190M60 190h5v5H60V190M70 190h5v5H70V190M85 190h5v5H85V190M90 190h5v5H90V190M100 190h5v5H100V190M105 190h5v5H105V190M120 190h5v5H120V190M140 190h5v5H140V190M150 190h5v5H150V190M175 190h5v5H175V190M180 190h5v5H180V190M195 190h5v5H195V190M200 190h5v5H200V190M20 195h5v5H20V195M50 195h5v5H50V195M70 195h5v5H70V195M85 195h5v5H85V195M90 195h5v5H90V195M100 195h5v5H100V195M120 195h5v5H120V195M125 195h5v5H125V195M135 195h5v5H135V195M140 195h5v5H140V195M160 195h5v5H160V195M165 195h5v5H165V195M180 195h5v5H180V195M185 195h5v5H185V195M20 200h5v5H20V200M25 200h5v5H25V200M30 200h5v5H30V200M35 200h5v5H35V200M40 200h5v5H40V200M45 200h5v5H45V200M50 200h5v5H50V200M65 200h5v5H65V200M75 200h5v5H75V200M90 200h5v5H90V200M95 200h5v5H95V200M105 200h5v5H105V200M115 200h5v5H115V200M130 200h5v5H130V200M140 200h5v5H140V200M160 200h5v5H160V200M175 200h5v5H175V200M180 200h5v5H180V200M185 200h5v5H185V200M200 200h5v5H200V200"/></svg>