<?xml version="1.0" standalone="yes"?><svg xmlns="http://www.w3.org/2000/svg" version="1.1" width="225" height="225" viewBox="0 0 225 225" shape-rendering="crispEdges"><rect x="0" y="0" width="225" height="225" fill="#efe1bf"/><path fill="#2b1810" d="M20 20h5v5H20V20M25 20h5v5H25V20M30 20h5v5H30V20M35 20h5v5H35V20M40 20h5v5H40V20M45 20h5v5H45V20M50 20h5v5H50V20M65 20h5v5H65V20M80 20h5v5H80V20M95 20h5v5H95V20M100 20h5v5H100V20M120 20h5v5H120V20M130 20h5v5H130V20M150 20h5v5H150V20M155 20h5v5H155V20M160 20h5v5H160V20M170 20h5v5H170V20M175 20h5v5H175V20M180 20h5v5H180V20M185 20h5v5H185V20M190 20h5v5H190V20M195 20h5v5H195V20M200 20h5v5H200V20M20 25h5v5H20V25M50 25h5v5H50V25M60 25h5v5H60V25M80 25h5v5H80V25M90 25h5v5H90V25M95 25h5v5H95V25M105 25h5v5H105V25M110 25h5v5H110V25M135 25h5v5H135V25M140 25h5v5H140V25M145 25h5v5H145V25M170 25h5v5H170V25M200 25h5v5H200V25M20 30h5v5H20V30M30 30h5v5H30V30M35 30h5v5H35V30M40 30h5v5H40V30M50 30h5v5H50V30M65 30h5v5H65V30M70 30h5v5H70V30M80 30h5v5H80V30M100 30h5v5H100V30M115 30h5v5H115V30M120 30h5v5H120V30M135 30h5v5H135V30M170 30h5v5H170V30M180 30h5v5H180V30M185 30h5v5H185V30M190 30h5v5H190V30M200 30h5v5H200V30M20 35h5v5H20V35M30 35h5v5H30V35M35 35h5v5H35V35M40 35h5v5H40V35M50 35h5v5H50V35M65 35h5v5H65V35M75 35h5v5H75V35M80 35h5v5H80V35M85 35h5v5H85V35M120 35h5v5H120V35M130 35h5v5H130V35M135 35h5v5H135V35M145 35h5v5H145V35M150 35h5v5H150V35M160 35h5v5H160V35M170 35h5v5H170V35M180 35h5v5H180V35M185 35h5v5H185V35M190 35h5v5H190V35M200 35h5v5H200V35M20 40h5v5H20V40M30 40h5v5H30V40M35 40h5v5H35V40M40 40h5v5H40V40M50 40h5v5H50V40M65 40h5v5H65V40M70 40h5v5H70V40M85 40h5v5H85V40M95 40h5v5H95V40M100 40h5v5H100V40M105 40h5v5H105V40M110 40h5v5H110V40M115 40h5v5H115V40M125 40h5v5H125V40M135 40h5v5H135V40M140 40h5v5H140V40M145 40h5v5H145V40M150 40h5v5H150V40M155 40h5v5H155V40M170 40h5v5H170V40M180 40h5v5H180V40M185 40h5v5H185V40M190 40h5v5H190V40M200 40h5v5H200V40M20 45h5v5H20V45M50 45h5v5H50V45M60 45h5v5H60V45M65 45h5v5H65V45M70 45h5v5H70V45M80 45h5v5H80V45M85 45h5v5H85V45M100 45h5v5H100V45M110 45h5v5H110V45M115 45h5v5H115V45M120 45h5v5H120V45M130 45h5v5H130V45M135 45h5v5H135V45M145 45h5v5H145V45M150 45h5v5H150V45M160 45h5v5H160V45M170 45h5v5H170V45M200 45h5v5H200V45M20 50h5v5H20V50M25 50h5v5H25V50M30 50h5v5H30V50M35 50h5v5H35V50M40 50h5v5H40V50M45 50h5v5H45V50M50 50h5v5H50V50M60 50h5v5H60V50M70 50h5v5H70V50M80 50h5v5H80V50M90 50h5v5H90V50M100 50h5v5H100V50M110 50h5v5H110V50M120 50h5v5H120V50M130 50h5v5H130V50M140 50h5v5H140V50M150 50h5v5H150V50M160 50h5v5H160V50M170 50h5v5H170V50M175 50h5v5H175V50M180 50h5v5H180V50M185 50h5v5H185V50M190 50h5v5H190V50M195 50h5v5H195V50M200 50h5v5H200V50M60 55h5v5H60V55M65 55h5v5H65V55M70 55h5v5H70V55M75 55h5v5H75V55M85 55h5v5H85V55M95 55h5v5H95V55M110 55h5v5H110V55M115 55h5v5H115V55M130 55h5v5H130V55M135 55h5v5H135V55M150 55h5v5H150V55M40 60h5v5H40V60M45 60h5v5H45V60M50 60h5v5H50V60M55 60h5v5H55V60M65 60h5v5H65V60M75 60h5v5H75V60M85 60h5v5H85V60M90 60h5v5H90V60M95 60h5v5H95V60M100 60h5v5H100V60M110 60h5v5H110V60M120 60h5v5H120V60M125 60h5v5H125V60M140 60h5v5H140V60M150 60h5v5H150V60M155 60h5v5H155V60M160 60h5v5H160V60M170 60h5v5H170V60M175 60h5v5H175V60M195 60h5v5H195V60M25 65h5v5H25V65M30 65h5v5H30V65M40 65h5v5H40V65M60 65h5v5H60V65M65 65h5v5H65V65M85 65h5v5H85V65M110 65h5v5H110V65M125 65h5v5H125V65M130 65h5v5H130V65M135 65h5v5H135V65M155 65h5v5H155V65M180 65h5v5H180V65M185 65h5v5H185V65M195 65h5v5H195V65M30 70h5v5H30V70M45 70h5v5H45V70M50 70h5v5H50V70M65 70h5v5H65V70M75 70h5v5H75V70M80 70h5v5H80V70M85 70h5v5H85V70M90 70h5v5H90V70M105 70h5v5H105V70M110 70h5v5H110V70M115 70h5v5H115V70M120 70h5v5H120V70M125 70h5v5H125V70M145 70h5v5H145V70M150 70h5v5H150V70M155 70h5v5H155V70M165 70h5v5H165V70M175 70h5v5H175V70M185 70h5v5H185V70M190 70h5v5H190V70M25 75h5v5H25V75M35 75h5v5H35V75M55 75h5v5H55V75M70 75h5v5H70V75M85 75h5v5H85V75M95 75h5v5H95V75M100 75h5v5H100V75M110 75h5v5H110V75M115 75h5v5H115V75M120 75h5v5H120V75M130 75h5v5H130V75M135 75h5v5H135V75M150 75h5v5H150V75M165 75h5v5H165V75M180 75h5v5H180V75M190 75h5v5H190V75M195 75h5v5H195V75M35 80h5v5H35V80M40 80h5v5H40V80M45 80h5v5H45V80M50 80h5v5H50V80M55 80h5v5H55V80M65 80h5v5H65V80M80 80h5v5H80V80M85 80h5v5H85V80M100 80h5v5H100V80M105 80h5v5H105V80M110 80h5v5H110V80M125 80h5v5H125V80M130 80h5v5H130V80M140 80h5v5H140V80M155 80h5v5H155V80M165 80h5v5H165V80M170 80h5v5H170V80M175 80h5v5H175V80M190 80h5v5H190V80M20 85h5v5H20V85M25 85h5v5H25V85M30 85h5v5H30V85M35 85h5v5H35V85M40 85h5v5H40V85M80 85h5v5H80V85M85 85h5v5H85V85M100 85h5v5H100V85M120 85h5v5H120V85M125 85h5v5H125V85M135 85h5v5H135V85M140 85h5v5H140V85M145 85h5v5H145V85M150 85h5v5H150V85M155 85h5v5H155V85M160 85h5v5H160V85M165 85h5v5H165V85M180 85h5v5H180V85M190 85h5v5H190V85M195 85h5v5H195V85M25 90h5v5H25V90M30 90h5v5H30V90M40 90h5v5H40V90M45 90h5v5H45V90M50 90h5v5H50V90M65 90h5v5H65V90M95 90h5v5H95V90M135 90h5v5H135V90M140 90h5v5H140V90M145 90h5v5H145V90M150 90h5v5H150V90M155 90h5v5H155V90M180 90h5v5H180V90M185 90h5v5H185V90M190 90h5v5H190V90M30 95h5v5H30V95M45 95h5v5H45V95M65 95h5v5H65V95M70 95h5v5H70V95M75 95h5v5H75V95M80 95h5v5H80V95M85 95h5v5H85V95M100 95h5v5H100V95M105 95h5v5H105V95M110 95h5v5H110V95M115 95h5v5H115V95M135 95h5v5H135V95M140 95h5v5H140V95M150 95h5v5H150V95M175 95h5v5H175V95M180 95h5v5H180V95M190 95h5v5H190V95M195 95h5v5H195V95M20 100h5v5H20V100M25 100h5v5H25V100M30 100h5v5H30V100M35 100h5v5H35V100M40 100h5v5H40V100M50 100h5v5H50V100M55 100h5v5H55V100M60 100h5v5H60V100M70 100h5v5H70V100M75 100h5v5H75V100M80 100h5v5H80V100M90 100h5v5H90V100M125 100h5v5H125V100M130 100h5v5H130V100M135 100h5v5H135V100M140 100h5v5H140V100M155 100h5v5H155V100M165 100h5v5H165V100M170 100h5v5H170V100M185 100h5v5H185V100M190 100h5v5H190V100M195 100h5v5H195V100M200 100h5v5H200V100M20 105h5v5H20V105M25 105h5v5H25V105M30 105h5v5H30V105M65 105h5v5H65V105M70 105h5v5H70V105M85 105h5v5H85V105M95 105h5v5H95V105M130 105h5v5H130V105M135 105h5v5H135V105M140 105h5v5H140V105M150 105h5v5H150V105M155 105h5v5H155V105M180 105h5v5H180V105M190 105h5v5H190V105M20 110h5v5H20V110M25 110h5v5H25V110M30 110h5v5H30V110M45 110h5v5H45V110M50 110h5v5H50V110M70 110h5v5H70V110M90 110h5v5H90V110M100 110h5v5H100V110M105 110h5v5H105V110M120 110h5v5H120V110M125 110h5v5H125V110M135 110h5v5H135V110M155 110h5v5H155V110M165 110h5v5H165V110M170 110h5v5H170V110M175 110h5v5H175V110M190 110h5v5H190V110M35 115h5v5H35V115M40 115h5v5H40V115M55 115h5v5H55V115M70 115h5v5H70V115M75 115h5v5H75V115M80 115h5v5H80V115M85 115h5v5H85V115M95 115h5v5H95V115M100 115h5v5H100V115M105 115h5v5H105V115M110 115h5v5H110V115M115 115h5v5H115V115M120 115h5v5H120V115M130 115h5v5H130V115M150 115h5v5H150V115M155 115h5v5H155V115M190 115h5v5H190V115M195 115h5v5H195V115M200 115h5v5H200V115M30 120h5v5H30V120M35 120h5v5H35V120M45 120h5v5H45V120M50 120h5v5H50V120M55 120h5v5H55V120M60 120h5v5H60V120M70 120h5v5H70V120M75 120h5v5H75V120M100 120h5v5H100V120M105 120h5v5H105V120M115 120h5v5H115V120M120 120h5v5H120V120M130 120h5v5H130V120M165 120h5v5H165V120M170 120h5v5H170V120M190 120h5v5H190V120M20 125h5v5H20V125M25 125h5v5H25V125M35 125h5v5H35V125M60 125h5v5H60V125M65 125h5v5H65V125M70 125h5v5H70V125M75 125h5v5H75V125M85 125h5v5H85V125M95 125h5v5H95V125M110 125h5v5H110V125M125 125h5v5H125V125M140 125h5v5H140V125M145 125h5v5H145V125M150 125h5v5H150V125M155 125h5v5H155V125M180 125h5v5H180V125M185 125h5v5H185V125M195 125h5v5H195V125M20 130h5v5H20V130M30 130h5v5H30V130M45 130h5v5H45V130M50 130h5v5H50V130M65 130h5v5H65V130M70 130h5v5H70V130M80 130h5v5H80V130M85 130h5v5H85V130M90 130h5v5H90V130M95 130h5v5H95V130M105 130h5v5H105V130M110 130h5v5H110V130M115 130h5v5H115V130M120 130h5v5H120V130M125 130h5v5H125V130M145 130h5v5H145V130M150 130h5v5H150V130M155 130h5v5H155V130M160 130h5v5H160V130M165 130h5v5H165V130M190 130h5v5H190V130M20 135h5v5H20V135M25 135h5v5H25V135M45 135h5v5H45V135M55 135h5v5H55V135M70 135h5v5H70V135M75 135h5v5H75V135M80 135h5v5H80V135M110 135h5v5H110V135M125 135h5v5H125V135M130 135h5v5H130V135M160 135h5v5H160V135M175 135h5v5H175V135M190 135h5v5H190V135M195 135h5v5H195V135M200 135h5v5H200V135M20 140h5v5H20V140M25 140h5v5H25V140M30 140h5v5H30V140M35 140h5v5H35V140M45 140h5v5H45V140M50 140h5v5H50V140M55 140h5v5H55V140M70 140h5v5H70V140M75 140h5v5H75V140M80 140h5v5H80V140M85 140h5v5H85V140M90 140h5v5H90V140M105 140h5v5H105V140M115 140h5v5H115V140M120 140h5v5H120V140M125 140h5v5H125V140M130 140h5v5H130V140M145 140h5v5H145V140M150 140h5v5H150V140M155 140h5v5H155V140M165 140h5v5H165V140M170 140h5v5H170V140M175 140h5v5H175V140M190 140h5v5H190V140M200 140h5v5H200V140M20 145h5v5H20V145M25 145h5v5H25V145M35 145h5v5H35V145M45 145h5v5H45V145M55 145h5v5H55V145M70 145h5v5H70V145M75 145h5v5H75V145M85 145h5v5H85V145M90 145h5v5H90V145M105 145h5v5H105V145M110 145h5v5H110V145M115 145h5v5H115V145M120 145h5v5H120V145M130 145h5v5H130V145M140 145h5v5H140V145M145 145h5v5H145V145M150 145h5v5H150V145M155 145h5v5H155V145M180 145h5v5H180V145M30 150h5v5H30V150M40 150h5v5H40V150M50 150h5v5H50V150M60 150h5v5H60V150M70 150h5v5H70V150M75 150h5v5H75V150M85 150h5v5H85V150M90 150h5v5H90V150M100 150h5v5H100V150M115 150h5v5H115V150M125 150h5v5H125V150M135 150h5v5H135V150M140 150h5v5H140V150M155 150h5v5H155V150M160 150h5v5H160V150M165 150h5v5H165V150M180 150h5v5H180V150M190 150h5v5H190V150M30 155h5v5H30V155M40 155h5v5H40V155M75 155h5v5H75V155M85 155h5v5H85V155M95 155h5v5H95V155M100 155h5v5H100V155M115 155h5v5H115V155M130 155h5v5H130V155M135 155h5v5H135V155M150 155h5v5H150V155M170 155h5v5H170V155M190 155h5v5H190V155M195 155h5v5H195V155M20 160h5v5H20V160M25 160h5v5H25V160M35 160h5v5H35V160M40 160h5v5H40V160M50 160h5v5H50V160M55 160h5v5H55V160M60 160h5v5H60V160M70 160h5v5H70V160M80 160h5v5H80V160M85 160h5v5H85V160M90 160h5v5H90V160M105 160h5v5H105V160M110 160h5v5H110V160M120 160h5v5H120V160M130 160h5v5H130V160M155 160h5v5H155V160M160 160h5v5H160V160M165 160h5v5H165V160M170 160h5v5H170V160M175 160h5v5H175V160M180 160h5v5H180V160M185 160h5v5H185V160M190 160h5v5H190V160M195 160h5v5H195V160M200 160h5v5H200V160M60 165h5v5H60V165M70 165h5v5H70V165M75 165h5v5H75V165M80 165h5v5H80V165M85 165h5v5H85V165M90 165h5v5H90V165M95 165h5v5H95V165M100 165h5v5H100V165M105 165h5v5H105V165M110 165h5v5H110V165M115 165h5v5H115V165M120 165h5v5H120V165M125 165h5v5H125V165M130 165h5v5H130V165M135 165h5v5H135V165M150 165h5v5H150V165M160 165h5v5H160V165M180 165h5v5H180V165M185 165h5v5H185V165M20 170h5v5H20V170M25 170h5v5H25V170M30 170h5v5H30V170M35 170h5v5H35V170M40 170h5v5H40V170M45 170h5v5H45V170M50 170h5v5H50V170M60 170h5v5H60V170M75 170h5v5H75V170M110 170h5v5H110V170M125 170h5v5H125V170M130 170h5v5H130V170M135 170h5v5H135V170M140 170h5v5H140V170M160 170h5v5H160V170M170 170h5v5H170V170M180 170h5v5H180V170M185 170h5v5H185V170M190 170h5v5H190V170M20 175h5v5H20V175M50 175h5v5H50V175M60 175h5v5H60V175M65 175h5v5H65V175M75 175h5v5H75V175M80 175h5v5H80V175M110 175h5v5H110V175M120 175h5v5H120V175M135 175h5v5H135V175M140 175h5v5H140V175M150 175h5v5H150V175M155 175h5v5H155V175M160 175h5v5H160V175M180 175h5v5H180V175M190 175h5v5H190V175M195 175h5v5H195V175M200 175h5v5H200V175M20 180h5v5H20V180M30 180h5v5H30V180M35 180h5v5H35V180M40 180h5v5H40V180M50 180h5v5H50V180M60 180h5v5H60V180M65 180h5v5H65V180M85 180h5v5H85V180M90 180h5v5H90V180M95 180h5v5H95V180M105 180h5v5H105V180M110 180h5v5H110V180M120 180h5v5H120V180M125 180h5v5H125V180M140 180h5v5H140V180M160 180h5v5H160V180M165 180h5v5H165V180M170 180h5v5H170V180M175 180h5v5H175V180M180 180h5v5H180V180M185 180h5v5H185V180M190 180h5v5H190V180M195 180h5v5H195V180M20 185h5v5H20V185M30 185h5v5H30V185M35 185h5v5H35V185M40 185h5v5H40V185M50 185h5v5H50V185M65 185h5v5H65V185M70 185h5v5H70V185M80 185h5v5H80V185M90 185h5v5H90V185M110 185h5v5H110V185M125 185h5v5H125V185M145 185h5v5H145V185M155 185h5v5H155V185M160 185h5v5H160V185M170 185h5v5H170V185M175 185h5v5H175V185M185 185h5v5H185V185M20 190h5v5H20V190M30 190h5v5H30V190M35 190h5v5H35V190M40 190h5v5H40V190M50 190h5v5H50V190M70 190h5v5H70V190M100 190h5v5H100V190M105 190h5v5H105V190M110 190h5v5H110V190M120 190h5v5H120V190M145 190h5v5H145V190M170 190h5v5H170V190M195 190h5v5H195V190M20 195h5v5H20V195M50 195h5v5H50V195M65 195h5v5H65V195M75 195h5v5H75V195M85 195h5v5H85V195M90 195h5v5H90V195M95 195h5v5H95V195M105 195h5v5H105V195M120 195h5v5H120V195M130 195h5v5H130V195M140 195h5v5H140V195M155 195h5v5H155V195M180 195h5v5H180V195M190 195h5v5H190V195M195 195h5v5H195V195M20 200h5v5H20V200M25 200h5v5H25V200M30 200h5v5H30V200M35 200h5v5H35V200M40 200h5v5H40V200M45 200h5v5H45V200M50 200h5v5H50V200M70 200h5v5H70V200M90 200h5v5H90V200M100 200h5v5H100V200M125 200h5v5H125V200M135 200h5v5H135V200M140 200h5v5H140V200M155 200h5v5H155V200M165 200h5v5H165V200M175 200h5v5H175V200M180 200h5v5H180V200M190 200h5v5H190V200M195 200h5v5H195V200M200 200h5v5H200V200"/></svg>